<mxfile host="Electron" modified="2023-10-28T23:21:56.230Z" agent="Mozilla/5.0 (Windows NT 10.0; Win64; x64) AppleWebKit/537.36 (KHTML, like Gecko) draw.io/22.0.3 Chrome/114.0.5735.289 Electron/25.8.4 Safari/537.36" etag="xDiCCjlpqqWREcmbVtKO" version="22.0.3" type="device">
  <diagram id="C5RBs43oDa-KdzZeNtuy" name="Page-1">
    <mxGraphModel dx="1376" dy="285" grid="1" gridSize="10" guides="1" tooltips="1" connect="1" arrows="1" fold="1" page="1" pageScale="1" pageWidth="827" pageHeight="1169" math="0" shadow="0">
      <root>
        <mxCell id="WIyWlLk6GJQsqaUBKTNV-0" />
        <mxCell id="WIyWlLk6GJQsqaUBKTNV-1" parent="WIyWlLk6GJQsqaUBKTNV-0" />
        <mxCell id="b58F66GTM5LkmkUT3oHD-16" value="" style="edgeStyle=orthogonalEdgeStyle;rounded=0;orthogonalLoop=1;jettySize=auto;html=1;" edge="1" parent="WIyWlLk6GJQsqaUBKTNV-1" source="b58F66GTM5LkmkUT3oHD-0" target="b58F66GTM5LkmkUT3oHD-15">
          <mxGeometry relative="1" as="geometry" />
        </mxCell>
        <mxCell id="b58F66GTM5LkmkUT3oHD-0" value="start" style="rounded=1;whiteSpace=wrap;html=1;" vertex="1" parent="WIyWlLk6GJQsqaUBKTNV-1">
          <mxGeometry x="340" y="20" width="120" height="60" as="geometry" />
        </mxCell>
        <mxCell id="b58F66GTM5LkmkUT3oHD-10" value="difficult" style="edgeStyle=orthogonalEdgeStyle;rounded=0;orthogonalLoop=1;jettySize=auto;html=1;" edge="1" parent="WIyWlLk6GJQsqaUBKTNV-1" source="b58F66GTM5LkmkUT3oHD-3" target="b58F66GTM5LkmkUT3oHD-9">
          <mxGeometry relative="1" as="geometry" />
        </mxCell>
        <mxCell id="b58F66GTM5LkmkUT3oHD-12" value="easy" style="edgeStyle=orthogonalEdgeStyle;rounded=0;orthogonalLoop=1;jettySize=auto;html=1;" edge="1" parent="WIyWlLk6GJQsqaUBKTNV-1" source="b58F66GTM5LkmkUT3oHD-3" target="b58F66GTM5LkmkUT3oHD-11">
          <mxGeometry relative="1" as="geometry" />
        </mxCell>
        <mxCell id="b58F66GTM5LkmkUT3oHD-3" value="difficulty?" style="rhombus;whiteSpace=wrap;html=1;rounded=1;" vertex="1" parent="WIyWlLk6GJQsqaUBKTNV-1">
          <mxGeometry x="360" y="220" width="80" height="80" as="geometry" />
        </mxCell>
        <mxCell id="b58F66GTM5LkmkUT3oHD-19" value="" style="edgeStyle=orthogonalEdgeStyle;rounded=0;orthogonalLoop=1;jettySize=auto;html=1;" edge="1" parent="WIyWlLk6GJQsqaUBKTNV-1" source="b58F66GTM5LkmkUT3oHD-5" target="b58F66GTM5LkmkUT3oHD-18">
          <mxGeometry relative="1" as="geometry" />
        </mxCell>
        <mxCell id="b58F66GTM5LkmkUT3oHD-5" value="Ask the player to guess a num" style="whiteSpace=wrap;html=1;rounded=1;" vertex="1" parent="WIyWlLk6GJQsqaUBKTNV-1">
          <mxGeometry x="340" y="350" width="120" height="60" as="geometry" />
        </mxCell>
        <mxCell id="b58F66GTM5LkmkUT3oHD-13" style="edgeStyle=orthogonalEdgeStyle;rounded=0;orthogonalLoop=1;jettySize=auto;html=1;entryX=0;entryY=0.5;entryDx=0;entryDy=0;" edge="1" parent="WIyWlLk6GJQsqaUBKTNV-1" source="b58F66GTM5LkmkUT3oHD-9" target="b58F66GTM5LkmkUT3oHD-5">
          <mxGeometry relative="1" as="geometry">
            <Array as="points">
              <mxPoint x="180" y="380" />
            </Array>
          </mxGeometry>
        </mxCell>
        <mxCell id="b58F66GTM5LkmkUT3oHD-9" value="set attempts to 5" style="whiteSpace=wrap;html=1;rounded=1;" vertex="1" parent="WIyWlLk6GJQsqaUBKTNV-1">
          <mxGeometry x="120" y="230" width="120" height="60" as="geometry" />
        </mxCell>
        <mxCell id="b58F66GTM5LkmkUT3oHD-14" style="edgeStyle=orthogonalEdgeStyle;rounded=0;orthogonalLoop=1;jettySize=auto;html=1;entryX=1;entryY=0.5;entryDx=0;entryDy=0;" edge="1" parent="WIyWlLk6GJQsqaUBKTNV-1" source="b58F66GTM5LkmkUT3oHD-11" target="b58F66GTM5LkmkUT3oHD-5">
          <mxGeometry relative="1" as="geometry">
            <Array as="points">
              <mxPoint x="600" y="380" />
            </Array>
          </mxGeometry>
        </mxCell>
        <mxCell id="b58F66GTM5LkmkUT3oHD-11" value="set attempts to 10" style="whiteSpace=wrap;html=1;rounded=1;" vertex="1" parent="WIyWlLk6GJQsqaUBKTNV-1">
          <mxGeometry x="550" y="230" width="120" height="60" as="geometry" />
        </mxCell>
        <mxCell id="b58F66GTM5LkmkUT3oHD-17" style="edgeStyle=orthogonalEdgeStyle;rounded=0;orthogonalLoop=1;jettySize=auto;html=1;" edge="1" parent="WIyWlLk6GJQsqaUBKTNV-1" source="b58F66GTM5LkmkUT3oHD-15" target="b58F66GTM5LkmkUT3oHD-3">
          <mxGeometry relative="1" as="geometry" />
        </mxCell>
        <mxCell id="b58F66GTM5LkmkUT3oHD-15" value="generate a random no and assign it to number variable" style="whiteSpace=wrap;html=1;rounded=1;" vertex="1" parent="WIyWlLk6GJQsqaUBKTNV-1">
          <mxGeometry x="340" y="120" width="120" height="60" as="geometry" />
        </mxCell>
        <mxCell id="b58F66GTM5LkmkUT3oHD-21" value="yes" style="edgeStyle=orthogonalEdgeStyle;rounded=0;orthogonalLoop=1;jettySize=auto;html=1;" edge="1" parent="WIyWlLk6GJQsqaUBKTNV-1" source="b58F66GTM5LkmkUT3oHD-18" target="b58F66GTM5LkmkUT3oHD-20">
          <mxGeometry relative="1" as="geometry" />
        </mxCell>
        <mxCell id="b58F66GTM5LkmkUT3oHD-23" value="no" style="edgeStyle=orthogonalEdgeStyle;rounded=0;orthogonalLoop=1;jettySize=auto;html=1;" edge="1" parent="WIyWlLk6GJQsqaUBKTNV-1" source="b58F66GTM5LkmkUT3oHD-18" target="b58F66GTM5LkmkUT3oHD-22">
          <mxGeometry relative="1" as="geometry" />
        </mxCell>
        <mxCell id="b58F66GTM5LkmkUT3oHD-18" value="is guess == num" style="rhombus;whiteSpace=wrap;html=1;rounded=1;" vertex="1" parent="WIyWlLk6GJQsqaUBKTNV-1">
          <mxGeometry x="360" y="480" width="80" height="80" as="geometry" />
        </mxCell>
        <mxCell id="b58F66GTM5LkmkUT3oHD-20" value="print congradulation, You Guessed right" style="whiteSpace=wrap;html=1;rounded=1;" vertex="1" parent="WIyWlLk6GJQsqaUBKTNV-1">
          <mxGeometry x="570" y="490" width="120" height="60" as="geometry" />
        </mxCell>
        <mxCell id="b58F66GTM5LkmkUT3oHD-25" value="yes" style="edgeStyle=orthogonalEdgeStyle;rounded=0;orthogonalLoop=1;jettySize=auto;html=1;" edge="1" parent="WIyWlLk6GJQsqaUBKTNV-1" source="b58F66GTM5LkmkUT3oHD-22" target="b58F66GTM5LkmkUT3oHD-24">
          <mxGeometry relative="1" as="geometry" />
        </mxCell>
        <mxCell id="b58F66GTM5LkmkUT3oHD-27" value="no" style="edgeStyle=orthogonalEdgeStyle;rounded=0;orthogonalLoop=1;jettySize=auto;html=1;" edge="1" parent="WIyWlLk6GJQsqaUBKTNV-1" source="b58F66GTM5LkmkUT3oHD-22" target="b58F66GTM5LkmkUT3oHD-26">
          <mxGeometry relative="1" as="geometry" />
        </mxCell>
        <mxCell id="b58F66GTM5LkmkUT3oHD-22" value="is guess &amp;gt; num" style="whiteSpace=wrap;html=1;rounded=1;" vertex="1" parent="WIyWlLk6GJQsqaUBKTNV-1">
          <mxGeometry x="340" y="650" width="120" height="60" as="geometry" />
        </mxCell>
        <mxCell id="b58F66GTM5LkmkUT3oHD-30" value="" style="edgeStyle=orthogonalEdgeStyle;rounded=0;orthogonalLoop=1;jettySize=auto;html=1;" edge="1" parent="WIyWlLk6GJQsqaUBKTNV-1" source="b58F66GTM5LkmkUT3oHD-24" target="b58F66GTM5LkmkUT3oHD-29">
          <mxGeometry relative="1" as="geometry" />
        </mxCell>
        <mxCell id="b58F66GTM5LkmkUT3oHD-24" value="print too high" style="whiteSpace=wrap;html=1;rounded=1;" vertex="1" parent="WIyWlLk6GJQsqaUBKTNV-1">
          <mxGeometry x="140" y="650" width="120" height="60" as="geometry" />
        </mxCell>
        <mxCell id="b58F66GTM5LkmkUT3oHD-31" style="edgeStyle=orthogonalEdgeStyle;rounded=0;orthogonalLoop=1;jettySize=auto;html=1;entryX=0.5;entryY=1;entryDx=0;entryDy=0;" edge="1" parent="WIyWlLk6GJQsqaUBKTNV-1" source="b58F66GTM5LkmkUT3oHD-26" target="b58F66GTM5LkmkUT3oHD-29">
          <mxGeometry relative="1" as="geometry" />
        </mxCell>
        <mxCell id="b58F66GTM5LkmkUT3oHD-26" value="print too low" style="whiteSpace=wrap;html=1;rounded=1;" vertex="1" parent="WIyWlLk6GJQsqaUBKTNV-1">
          <mxGeometry x="340" y="790" width="120" height="60" as="geometry" />
        </mxCell>
        <mxCell id="b58F66GTM5LkmkUT3oHD-34" value="" style="edgeStyle=orthogonalEdgeStyle;rounded=0;orthogonalLoop=1;jettySize=auto;html=1;" edge="1" parent="WIyWlLk6GJQsqaUBKTNV-1" source="b58F66GTM5LkmkUT3oHD-29" target="b58F66GTM5LkmkUT3oHD-33">
          <mxGeometry relative="1" as="geometry" />
        </mxCell>
        <mxCell id="b58F66GTM5LkmkUT3oHD-29" value="attempt -= 1" style="whiteSpace=wrap;html=1;rounded=1;" vertex="1" parent="WIyWlLk6GJQsqaUBKTNV-1">
          <mxGeometry x="-60" y="650" width="120" height="60" as="geometry" />
        </mxCell>
        <mxCell id="b58F66GTM5LkmkUT3oHD-35" value="no" style="edgeStyle=orthogonalEdgeStyle;rounded=0;orthogonalLoop=1;jettySize=auto;html=1;entryX=0;entryY=0.75;entryDx=0;entryDy=0;" edge="1" parent="WIyWlLk6GJQsqaUBKTNV-1" source="b58F66GTM5LkmkUT3oHD-33" target="b58F66GTM5LkmkUT3oHD-5">
          <mxGeometry relative="1" as="geometry">
            <Array as="points">
              <mxPoint y="395" />
            </Array>
          </mxGeometry>
        </mxCell>
        <mxCell id="b58F66GTM5LkmkUT3oHD-37" value="yes" style="edgeStyle=orthogonalEdgeStyle;rounded=0;orthogonalLoop=1;jettySize=auto;html=1;" edge="1" parent="WIyWlLk6GJQsqaUBKTNV-1" source="b58F66GTM5LkmkUT3oHD-33" target="b58F66GTM5LkmkUT3oHD-36">
          <mxGeometry relative="1" as="geometry" />
        </mxCell>
        <mxCell id="b58F66GTM5LkmkUT3oHD-33" value="is attempt == 0" style="rhombus;whiteSpace=wrap;html=1;rounded=1;" vertex="1" parent="WIyWlLk6GJQsqaUBKTNV-1">
          <mxGeometry x="-40" y="500" width="80" height="80" as="geometry" />
        </mxCell>
        <mxCell id="b58F66GTM5LkmkUT3oHD-36" value="print u are out of attempts you lose" style="whiteSpace=wrap;html=1;rounded=1;" vertex="1" parent="WIyWlLk6GJQsqaUBKTNV-1">
          <mxGeometry x="-270" y="510" width="120" height="60" as="geometry" />
        </mxCell>
      </root>
    </mxGraphModel>
  </diagram>
</mxfile>
